<?xml version="1.0" encoding="UTF-8"?>
<svg id="Capa_1" data-name="Capa 1" xmlns="http://www.w3.org/2000/svg" viewBox="0 0 800 104">
  <defs>
    <style>
      .cls-1 {
        fill: #fff;
      }
    </style>
  </defs>
  <g>
    <g>
      <path class="cls-1" d="M559.06,17.33h23.52c13.93,0,21.74,6.83,21.74,17.83,0,8.42-4.84,13.67-12.45,15.65,9.09,1.39,15.52,6.64,15.52,16.54,0,11.98-8.3,19.31-24.41,19.31h-23.92V17.33ZM582.78,48.83c10.28,0,16.21-5.05,16.21-13.37s-5.73-13.27-16.21-13.27h-18.38v26.64h18.38ZM582.97,81.81c12.55,0,18.98-5.45,18.98-14.16s-6.92-13.96-18.98-13.96h-18.58v28.13h18.58Z"/>
      <path class="cls-1" d="M618.06,36.45h4.45l.59,10.8c1.98-6.04,5.93-10.8,15.52-10.8h2.57v4.85h-3.66c-11.76,0-14.43,9.71-14.43,19.91v25.45h-5.04v-50.21Z"/>
      <path class="cls-1" d="M644.35,72.89c0-9.41,6.92-14.96,19.77-14.96h17v-4.36c0-8.42-5.34-13.27-14.73-13.27-8.6,0-13.84,4.06-15.12,10.2h-5.04c1.28-9.11,8.89-14.66,20.36-14.66,12.55,0,19.57,6.44,19.57,17.93v23.37c0,3.86,1.48,4.85,4.45,4.85h1.88v4.66h-2.96c-5.53,0-8.2-2.38-8.2-7.63v-2.97c-2.67,6.34-8.99,11.19-19.27,11.19s-17.69-5.45-17.69-14.36ZM681.11,66.26v-3.96h-17.39c-9.29,0-14.23,3.66-14.23,10.3s4.94,10.3,12.95,10.3c11.86,0,18.68-6.93,18.68-16.64Z"/>
      <path class="cls-1" d="M699.49,36.45h4.45l.59,10.99c2.67-6.83,8.8-11.59,18.09-11.59,11.37,0,19.77,6.54,19.77,21.89v28.92h-5.04v-28.62c0-11.49-5.73-17.53-15.42-17.53-11.17,0-17.39,7.63-17.39,19.91v26.25h-5.04v-50.21Z"/>
      <path class="cls-1" d="M752.17,61.5c0-15.15,9.88-25.65,23.62-25.65,9.59,0,16.41,5.05,19.17,12.58v-31.1h5.04v69.33h-4.35l-.69-12.18c-2.96,7.33-9.59,12.78-19.17,12.78-13.74,0-23.62-9.9-23.62-25.75ZM795.06,61.6c0-12.48-7.71-21.29-18.88-21.29s-18.88,8.81-18.88,21.2,7.71,21.2,18.88,21.2,18.88-8.72,18.88-21.1Z"/>
    </g>
    <g>
      <path class="cls-1" d="M157.01,17.33h-27.28v9.9h26.39c8.1,0,13.24,4.65,13.24,12.18s-5.24,12.18-13.34,12.18h-14.92v-9.59c0-6.29-5.09-11.39-11.37-11.39v56.04h11.37v-25.16h15.91c14.43,0,23.92-8.72,23.92-22.09s-9.49-22.09-23.92-22.09Z"/>
      <path class="cls-1" d="M249.14,35.36c-14.27,0-25.79,11.65-25.78,25.95,0,15.55,10.38,25.94,25.79,25.94s25.79-10.4,25.79-25.95-10.38-25.95-25.81-25.95ZM249.15,78.14c-8.99,0-14.82-7.03-14.82-16.84s5.83-16.84,14.82-16.84,14.92,7.03,14.92,16.84-5.93,16.84-14.92,16.84Z"/>
      <path class="cls-1" d="M333.82,35.95v50.71h10.77v-39.91c0-5.96-4.82-10.8-10.77-10.8Z"/>
      <path class="cls-1" d="M413.88,35.36c-8.4,0-14.03,3.76-17.3,9.21-2.97-6.34-8.99-9.21-15.71-9.21-7.51,0-12.06,3.47-14.73,7.13l-1.09-6.54h-9.39v50.71h10.77v-28.13c0-8.32,4.55-13.96,11.86-13.96,6.92,0,10.67,4.46,10.67,12.48v29.61h10.67v-28.42c0-8.42,4.64-13.67,11.96-13.67,6.92,0,10.57,4.46,10.57,12.48v29.61h10.77v-30.21c0-15.25-8.6-21.1-19.07-21.1Z"/>
      <path class="cls-1" d="M292.53,63.53l-16.83,23.13h11.86l5.49-7.64c3.37-4.68,3.15-11.05-.52-15.49h0Z"/>
      <polygon class="cls-1" points="325.41 35.95 313.45 35.95 301.3 52.99 289.34 35.95 276.79 35.95 294.58 60.71 300.8 68.24 313.95 86.66 326.5 86.66 307.62 60.71 325.41 35.95"/>
      <path class="cls-1" d="M482.72,71.81v-12.35c0-5.91-4.78-10.7-10.67-10.7v24.13c0,9.21,4.05,13.77,13.74,13.77h9.98v-9.41h-7.51c-4.05,0-5.53-1.49-5.53-5.45Z"/>
      <path class="cls-1" d="M538.46,35.95l-13.84,38.53-13.93-38.53h-27.97v-14.16h-10.67v14.16h-8.8v9.41h8.8v.02h10.67v-.02h20.1l15.87,41.5-.96,2.58c-1.48,4.16-2.47,5.15-6.62,5.15h-7.51v9.41h11.46c7.41,0,9.59-3.57,12.75-11.79l22.01-56.26h-11.37Z"/>
      <path class="cls-1" d="M188.83,48.76v37.9h10.77v-27.1c0-5.96-4.82-10.8-10.77-10.8Z"/>
      <path class="cls-1" d="M188.83,45.38h31.54v-9.43h-22.13c-5.19,0-9.41,4.22-9.41,9.43Z"/>
      <path class="cls-1" d="M443.52,35.95v50.71h10.77v-39.91c0-5.96-4.82-10.8-10.77-10.8Z"/>
      <rect class="cls-1" x="443.52" y="21.79" width="10.77" height="10.8"/>
      <rect class="cls-1" x="333.82" y="21.79" width="10.77" height="10.8"/>
    </g>
  </g>
  <g>
    <path class="cls-1" d="M28.56,99.5c4.14,2.02,8.58,3.51,13.23,4.4.58.11,1.16-.22,1.37-.79l6.92-18.37c.65-1.72,3.05-1.69,3.66.04l6.47,18.37c.2.57.78.92,1.37.82,4.85-.89,9.46-2.43,13.75-4.54.74-.37.94-1.35.39-1.97l-12.52-14.04c-6.02-6.75-16.45-6.75-22.46,0l-12.57,14.1c-.56.62-.36,1.61.39,1.98Z"/>
    <path class="cls-1" d="M.47,44.27c-.61,4.62-.63,9.38-.03,14.16.08.6.57,1.05,1.16,1.08l19.32,1.02c1.81.1,2.53,2.43,1.09,3.55l-15.19,11.93c-.47.37-.62,1.04-.34,1.58,2.33,4.41,5.2,8.4,8.49,11.89.57.61,1.56.49,1.97-.24l9.27-16.44c4.45-7.9,1.23-17.99-6.94-21.72l-17.07-7.8c-.75-.34-1.62.15-1.73.98Z"/>
    <path class="cls-1" d="M43.45.04c-4.51.84-8.97,2.28-13.25,4.34-.54.26-.81.87-.65,1.46l5.01,19c.47,1.78-1.49,3.19-2.99,2.16l-15.85-11c-.49-.34-1.17-.28-1.58.16-3.41,3.62-6.25,7.62-8.5,11.89-.39.74.02,1.66.83,1.83l18.24,3.88c8.77,1.87,17.21-4.37,18.18-13.42l2.02-18.92c.09-.84-.64-1.52-1.45-1.37Z"/>
    <path class="cls-1" d="M98.09,27.94c-2.18-4.11-4.91-7.97-8.16-11.48-.41-.44-1.07-.51-1.56-.18l-16.22,10.72c-1.52,1-3.45-.46-2.94-2.22l5.39-18.73c.17-.58-.1-1.22-.64-1.48C69.53,2.39,64.91.88,60.23.02c-.81-.15-1.54.53-1.45,1.37l2,18.84c.96,9.06,9.4,15.29,18.17,13.43l18.32-3.89c.81-.17,1.22-1.09.83-1.83Z"/>
    <path class="cls-1" d="M88.88,89.41c3.17-3.38,5.94-7.21,8.21-11.43.28-.53.15-1.19-.31-1.57l-15.03-12.38c-1.41-1.16-.64-3.48,1.17-3.53l19.18-.57c.6-.02,1.11-.47,1.19-1.07.67-4.96.65-9.9,0-14.7-.11-.83-.97-1.33-1.73-.98l-17,7.76c-8.17,3.73-11.4,13.81-6.95,21.72l9.29,16.52c.41.73,1.4.85,1.97.24Z"/>
  </g>
</svg>