<?xml version="1.0" encoding="UTF-8"?>
<svg id="Capa_1" data-name="Capa 1" xmlns="http://www.w3.org/2000/svg" viewBox="0 0 600 177">
  <defs>
    <style>
      .cls-1 {
        fill: #fff;
      }
    </style>
  </defs>
  <g>
    <path class="cls-1" d="M48.72,169.34c7.06,3.43,14.63,5.98,22.57,7.49.99.19,1.98-.38,2.34-1.34l11.8-31.26c1.11-2.93,5.2-2.88,6.25.07l11.03,31.27c.34.98,1.33,1.57,2.34,1.39,8.26-1.52,16.13-4.14,23.44-7.73,1.27-.62,1.6-2.3.66-3.36l-21.35-23.89c-10.26-11.49-28.05-11.49-38.31,0l-21.44,23.99c-.95,1.06-.61,2.74.66,3.36Z"/>
    <path class="cls-1" d="M.8,75.35c-1.04,7.87-1.08,15.96-.05,24.1.13,1.02.97,1.79,1.98,1.84l32.94,1.74c3.09.16,4.31,4.13,1.86,6.05l-25.9,20.31c-.81.63-1.06,1.77-.58,2.69,3.97,7.51,8.87,14.29,14.48,20.24.98,1.03,2.65.84,3.35-.4l15.8-27.98c7.6-13.45,2.1-30.62-11.83-36.97l-29.11-13.28c-1.29-.59-2.76.26-2.95,1.67Z"/>
    <path class="cls-1" d="M74.1.07c-7.7,1.43-15.3,3.89-22.6,7.39-.91.44-1.38,1.49-1.12,2.48l8.55,32.33c.8,3.03-2.54,5.44-5.1,3.67l-27.03-18.72c-.84-.58-1.99-.48-2.7.27-5.81,6.15-10.66,12.97-14.5,20.23-.67,1.26.04,2.82,1.42,3.11l31.11,6.61c14.95,3.18,29.35-7.43,31-22.84l3.45-32.2c.15-1.42-1.09-2.59-2.48-2.33Z"/>
    <path class="cls-1" d="M167.3,47.56c-3.72-6.99-8.37-13.56-13.91-19.53-.69-.75-1.82-.87-2.67-.31l-27.66,18.24c-2.59,1.71-5.88-.77-5.01-3.78l9.2-31.87c.29-1-.17-2.07-1.09-2.52-7.56-3.7-15.45-6.28-23.44-7.74-1.39-.25-2.63.9-2.48,2.33l3.42,32.06c1.64,15.41,16.03,26.03,30.98,22.86l31.24-6.62c1.38-.29,2.09-1.85,1.42-3.11Z"/>
    <path class="cls-1" d="M151.58,152.17c5.4-5.74,10.13-12.27,14.01-19.46.48-.9.25-2.03-.53-2.67l-25.64-21.06c-2.4-1.97-1.09-5.91,2-6.01l32.72-.97c1.02-.03,1.89-.8,2.02-1.83,1.14-8.44,1.11-16.85.02-25.01-.19-1.42-1.66-2.26-2.95-1.67l-29,13.2c-13.94,6.35-19.44,23.51-11.86,36.96l15.85,28.11c.7,1.24,2.38,1.44,3.36.4Z"/>
  </g>
  <g>
    <g>
      <path class="cls-1" d="M234.56,16.09h-25.38v9.19h24.55c7.54,0,12.32,4.32,12.32,11.31s-4.87,11.31-12.41,11.31h-13.88v-8.9c0-5.84-4.73-10.57-10.57-10.57v52.03h10.57v-23.35h14.8c13.42,0,22.25-8.09,22.25-20.5s-8.83-20.5-22.25-20.5Z"/>
      <path class="cls-1" d="M320.27,32.82c-13.28,0-23.99,10.82-23.99,24.09,0,14.43,9.66,24.08,24,24.08s24-9.65,24-24.09-9.66-24.09-24.01-24.09ZM320.28,72.54c-8.37,0-13.79-6.53-13.79-15.63s5.42-15.63,13.79-15.63,13.88,6.53,13.88,15.63-5.52,15.63-13.88,15.63Z"/>
      <path class="cls-1" d="M399.06,33.38v47.08h10.02v-37.05c0-5.54-4.49-10.02-10.02-10.02Z"/>
      <path class="cls-1" d="M473.53,32.82c-7.81,0-13.06,3.49-16.09,8.55-2.76-5.88-8.37-8.55-14.62-8.55-6.99,0-11.22,3.22-13.7,6.62l-1.01-6.07h-8.73v47.08h10.02v-26.11c0-7.72,4.23-12.96,11.03-12.96,6.44,0,9.93,4.14,9.93,11.59v27.49h9.93v-26.39c0-7.82,4.32-12.69,11.12-12.69,6.44,0,9.84,4.14,9.84,11.59v27.49h10.02v-28.04c0-14.16-8-19.58-17.74-19.58Z"/>
      <path class="cls-1" d="M360.64,58.98l-15.65,21.47h11.03l5.11-7.09c3.13-4.35,2.93-10.26-.49-14.38h0Z"/>
      <polygon class="cls-1" points="391.23 33.38 380.1 33.38 368.8 49.19 357.67 33.38 345.99 33.38 362.54 56.36 368.34 63.35 380.56 80.45 392.24 80.45 374.68 56.36 391.23 33.38"/>
      <path class="cls-1" d="M537.57,66.66v-11.46c0-5.48-4.45-9.93-9.93-9.93v22.4c0,8.55,3.77,12.78,12.78,12.78h9.29v-8.73h-6.99c-3.77,0-5.15-1.38-5.15-5.06Z"/>
      <path class="cls-1" d="M589.43,33.38l-12.87,35.77-12.96-35.77h-26.02v-13.15h-9.93v13.15h-8.18v8.73h8.18v.02h9.93v-.02h18.7l14.77,38.53-.89,2.39c-1.38,3.86-2.3,4.78-6.16,4.78h-6.99v8.73h10.67c6.9,0,8.92-3.31,11.86-10.94l20.47-52.23h-10.57Z"/>
      <path class="cls-1" d="M264.17,45.27v35.18h10.02v-25.16c0-5.54-4.49-10.02-10.02-10.02Z"/>
      <path class="cls-1" d="M264.17,42.13h29.34v-8.75h-20.59c-4.83,0-8.75,3.92-8.75,8.75Z"/>
      <path class="cls-1" d="M501.11,33.38v47.08h10.02v-37.05c0-5.54-4.49-10.02-10.02-10.02Z"/>
      <rect class="cls-1" x="501.11" y="20.23" width="10.02" height="10.02"/>
      <rect class="cls-1" x="399.06" y="20.23" width="10.02" height="10.02"/>
    </g>
    <g>
      <path class="cls-1" d="M209.19,96.54h21.88c12.96,0,20.23,6.34,20.23,16.55,0,7.82-4.51,12.69-11.58,14.53,8.46,1.29,14.43,6.16,14.43,15.35,0,11.13-7.72,17.93-22.71,17.93h-22.25v-64.36ZM231.25,125.78c9.56,0,15.08-4.69,15.08-12.41s-5.33-12.32-15.08-12.32h-17.1v24.73h17.1ZM231.44,156.39c11.68,0,17.65-5.06,17.65-13.15s-6.44-12.96-17.65-12.96h-17.29v26.11h17.29Z"/>
      <path class="cls-1" d="M264.08,114.28h4.14l.55,10.02c1.84-5.61,5.52-10.02,14.43-10.02h2.39v4.51h-3.4c-10.94,0-13.42,9.01-13.42,18.48v23.63h-4.69v-46.62Z"/>
      <path class="cls-1" d="M288.53,148.12c0-8.73,6.44-13.88,18.39-13.88h15.81v-4.05c0-7.82-4.97-12.32-13.7-12.32-8,0-12.87,3.77-14.07,9.47h-4.69c1.2-8.46,8.27-13.61,18.94-13.61,11.68,0,18.2,5.98,18.2,16.64v21.7c0,3.59,1.38,4.51,4.14,4.51h1.75v4.32h-2.76c-5.15,0-7.63-2.21-7.63-7.08v-2.76c-2.48,5.88-8.37,10.39-17.93,10.39s-16.46-5.06-16.46-13.33ZM322.73,141.96v-3.68h-16.18c-8.64,0-13.24,3.4-13.24,9.56s4.6,9.56,12.04,9.56c11.03,0,17.38-6.44,17.38-15.45Z"/>
      <path class="cls-1" d="M339.83,114.28h4.14l.55,10.21c2.48-6.34,8.18-10.76,16.83-10.76,10.57,0,18.39,6.07,18.39,20.32v26.85h-4.69v-26.57c0-10.67-5.33-16.27-14.34-16.27-10.39,0-16.18,7.08-16.18,18.48v24.37h-4.69v-46.62Z"/>
      <path class="cls-1" d="M388.84,137.55c0-14.07,9.19-23.81,21.97-23.81,8.92,0,15.26,4.69,17.84,11.68v-28.87h4.69v64.36h-4.04l-.64-11.31c-2.76,6.8-8.92,11.86-17.84,11.86-12.78,0-21.97-9.19-21.97-23.91ZM428.74,137.64c0-11.59-7.17-19.77-17.56-19.77s-17.56,8.18-17.56,19.68,7.17,19.68,17.56,19.68,17.56-8.09,17.56-19.58Z"/>
    </g>
  </g>
</svg>