<?xml version="1.0" encoding="UTF-8"?>
<svg id="Capa_1" data-name="Capa 1" xmlns="http://www.w3.org/2000/svg" viewBox="0 0 400 400">
  <defs>
    <style>
      .cls-1 {
        fill: #fff;
      }
    </style>
  </defs>
  <path class="cls-1" d="M110.09,382.69c15.94,7.76,33.06,13.51,51.01,16.94,2.24.43,4.47-.86,5.29-3.03l26.67-70.64c2.5-6.62,11.76-6.51,14.12.16l24.93,70.67c.78,2.21,3.01,3.55,5.29,3.14,18.68-3.43,36.46-9.36,52.98-17.46,2.87-1.41,3.62-5.2,1.48-7.6l-48.24-54c-23.19-25.96-63.38-25.96-86.57,0l-48.44,54.22c-2.14,2.4-1.39,6.2,1.49,7.6Z"/>
  <path class="cls-1" d="M1.81,170.28c-2.35,17.78-2.45,36.08-.12,54.46.29,2.3,2.19,4.05,4.47,4.17l74.45,3.92c6.98.37,9.74,9.34,4.21,13.67l-58.53,45.89c-1.83,1.43-2.4,4.01-1.3,6.07,8.98,16.97,20.04,32.3,32.73,45.74,2.2,2.33,5.99,1.89,7.58-.91l35.71-63.24c17.17-30.4,4.75-69.19-26.74-83.55l-65.79-30c-2.91-1.33-6.24.58-6.66,3.79Z"/>
  <path class="cls-1" d="M167.45.17c-17.39,3.23-34.57,8.78-51.08,16.71-2.06.99-3.12,3.36-2.52,5.6l19.32,73.06c1.81,6.85-5.75,12.28-11.51,8.29l-61.09-42.32c-1.91-1.32-4.5-1.08-6.1.62-13.13,13.91-24.08,29.31-32.76,45.71-1.51,2.85.08,6.37,3.2,7.03l70.3,14.93c33.79,7.18,66.32-16.79,70.05-51.62l7.8-72.76c.34-3.22-2.47-5.84-5.61-5.26Z"/>
  <path class="cls-1" d="M378.07,107.48c-8.4-15.79-18.91-30.65-31.44-44.14-1.57-1.69-4.12-1.97-6.03-.71l-62.51,41.22c-5.86,3.86-13.29-1.75-11.33-8.55l20.79-72.03c.65-2.25-.38-4.67-2.46-5.69C268,9.2,250.17,3.39,232.12.08c-3.13-.57-5.94,2.04-5.6,5.26l7.72,72.46c3.71,34.83,36.22,58.82,70.02,51.66l70.61-14.95c3.12-.66,4.71-4.19,3.2-7.04Z"/>
  <path class="cls-1" d="M342.55,343.89c12.21-12.98,22.89-27.72,31.66-43.98,1.1-2.03.57-4.58-1.2-6.04l-57.94-47.6c-5.43-4.46-2.46-13.37,4.52-13.57l73.94-2.19c2.31-.07,4.26-1.81,4.57-4.13,2.57-19.08,2.51-38.08.03-56.52-.43-3.2-3.75-5.11-6.66-3.78l-65.53,29.84c-31.5,14.34-43.94,53.13-26.79,83.54l35.82,63.52c1.58,2.81,5.38,3.26,7.58.91Z"/>
</svg>